# Blender 4.0.2
# www.blender.org
o Plane
v -1.000000 1.810555 1.392507
v 1.000000 1.810555 1.392507
v -1.000000 -2.060614 -3.429856
v 1.000000 -2.060614 -3.429856
v -1.000000 -1.159314 -1.018675
v 1.000000 -4.804559 -5.841037
v -1.000000 -4.804559 -5.841037
v 1.000000 -1.159314 -1.018675
v -1.000000 -0.130950 0.186916
v 1.000000 -7.204441 -7.046628
v -1.000000 -3.249047 -4.635447
v 1.000000 -1.508134 -2.224265
v -1.000000 -1.508134 -2.224265
v 1.000000 -3.249047 -4.635447
v -1.000000 -7.204441 -7.046628
v 1.000000 -0.130950 0.186916
vn -0.0000 0.9091 -0.4166
vn -0.0000 0.7608 -0.6490
vn -0.0000 0.6126 -0.7904
vn -0.0000 0.7122 -0.7020
vn -0.0000 0.5275 -0.8495
vn -0.0000 0.9606 -0.2779
vn -0.0000 0.4489 -0.8936
vt 0.000000 0.187500
vt 1.000000 0.187500
vt 1.000000 0.250000
vt 0.000000 0.250000
vt 0.000000 0.062500
vt 1.000000 0.062500
vt 1.000000 0.125000
vt 0.000000 0.125000
vt 0.000000 0.312500
vt 1.000000 0.312500
vt 1.000000 0.375000
vt 0.000000 0.375000
vt 0.000000 0.000000
vt 1.000000 0.000000
vt 1.000000 0.437500
vt 0.000000 0.437500
s 0
f 13/1/1 12/2/1 4/3/1 3/4/1
f 9/5/2 16/6/2 8/7/2 5/8/2
f 11/9/3 14/10/3 6/11/3 7/12/3
f 3/4/4 4/3/4 14/10/4 11/9/4
f 1/13/5 2/14/5 16/6/5 9/5/5
f 5/8/6 8/7/6 12/2/6 13/1/6
f 7/12/7 6/11/7 10/15/7 15/16/7
